# xmcd
#
# Track frame offsets:
#  150
#  15429
#  52592
#  88107
#  120300
#  151384
#
# Disc length: 2397 seconds
#
# Revision: 3
# Processed by: cddbd v1.4PL0 Copyright (c) Steve Scherf et al.
# Submitted via: AltoMP3_Maker 3.0
#
DISCID=34095b06
DTITLE=Mauro Picotto - Unbekannte CD #34095B067C09B180
DYEAR=1900
DGENRE=
TTITLE0=Komodo
TTITLE1=Komodo
TTITLE2=Komodo
TTITLE3=Komodo
TTITLE4=Komodo
TTITLE5=Komodo
EXTD=
EXTT0=
EXTT1=
EXTT2=
EXTT3=
EXTT4=
EXTT5=
PLAYORDER=
